<svg xmlns="http://www.w3.org/2000/svg" xmlns:xlink="http://www.w3.org/1999/xlink" width="54" height="54" viewBox="0 0 54 54">
  <defs>
    <filter id="Ellipse_296" x="0" y="0" width="54" height="54" filterUnits="userSpaceOnUse">
      <feOffset dx="1" dy="1" input="SourceAlpha"/>
      <feGaussianBlur stdDeviation="0.5" result="blur"/>
      <feFlood flood-color="#fff" flood-opacity="0.745"/>
      <feComposite operator="in" in2="blur"/>
      <feComposite in="SourceGraphic"/>
    </filter>
    <linearGradient id="linear-gradient" y1="0.5" x2="1" y2="0.5" gradientUnits="objectBoundingBox">
      <stop offset="0" stop-color="#009fe3"/>
      <stop offset="0.08" stop-color="#0399de"/>
      <stop offset="0.19" stop-color="#0e8bd3"/>
      <stop offset="0.3" stop-color="#2072bf"/>
      <stop offset="0.41" stop-color="#3a50a4"/>
      <stop offset="0.53" stop-color="#5a2583"/>
      <stop offset="0.71" stop-color="#453f94"/>
      <stop offset="0.88" stop-color="#38519f"/>
      <stop offset="1" stop-color="#3458a4"/>
    </linearGradient>
    <linearGradient id="linear-gradient-2" y1="0.5" x2="1" y2="0.5" xlink:href="#linear-gradient"/>
    <linearGradient id="linear-gradient-3" y1="0.5" x2="1" y2="0.5" gradientUnits="objectBoundingBox">
      <stop offset="0" stop-color="#0059a6"/>
      <stop offset="0.1" stop-color="#0556a1"/>
      <stop offset="0.22" stop-color="#134f93"/>
      <stop offset="0.35" stop-color="#2c427d"/>
      <stop offset="0.49" stop-color="#4e315e"/>
      <stop offset="0.53" stop-color="#5a2c54"/>
      <stop offset="0.67" stop-color="#353e75"/>
      <stop offset="0.8" stop-color="#184c90"/>
      <stop offset="0.92" stop-color="#0655a0"/>
      <stop offset="1" stop-color="#0059a6"/>
    </linearGradient>
    <linearGradient id="linear-gradient-4" y1="0.5" x2="1" y2="0.5" xlink:href="#linear-gradient"/>
    <linearGradient id="linear-gradient-5" x1="0" xlink:href="#linear-gradient-3"/>
    <linearGradient id="linear-gradient-6" y1="0.5" x2="1" y2="0.5" xlink:href="#linear-gradient"/>
    <linearGradient id="linear-gradient-7" x1="0" xlink:href="#linear-gradient-3"/>
    <linearGradient id="linear-gradient-8" x1="0" xlink:href="#linear-gradient-3"/>
    <linearGradient id="linear-gradient-9" y1="0.5" x2="1" y2="0.5" xlink:href="#linear-gradient"/>
    <linearGradient id="linear-gradient-10" y1="0.5" x2="1" y2="0.5" xlink:href="#linear-gradient"/>
    <linearGradient id="linear-gradient-11" x1="0" xlink:href="#linear-gradient-3"/>
    <linearGradient id="linear-gradient-12" y1="0.5" x2="1.001" y2="0.5" xlink:href="#linear-gradient"/>
    <linearGradient id="linear-gradient-14" y1="0.499" x2="1.001" y2="0.499" xlink:href="#linear-gradient"/>
  </defs>
  <g id="Group_12223" data-name="Group 12223" transform="translate(-856.5 -224.5)">
    <g transform="matrix(1, 0, 0, 1, 856.5, 224.5)" filter="url(#Ellipse_296)">
      <circle id="Ellipse_296-2" data-name="Ellipse 296" cx="25.5" cy="25.5" r="25.5" transform="translate(0.5 0.5)"/>
    </g>
    <g id="Layer_1" data-name="Layer 1" transform="translate(858 225.31)">
      <g id="Group_5" data-name="Group 5">
        <path id="Path_12" data-name="Path 12" d="M25,50A25,25,0,1,1,50,25,25.029,25.029,0,0,1,25,50ZM25,.5A24.5,24.5,0,1,0,49.5,25,24.529,24.529,0,0,0,25,.5Z" fill="url(#linear-gradient)"/>
        <path id="Path_13" data-name="Path 13" d="M26.13,50A23.867,23.867,0,1,1,50,26.137,23.9,23.9,0,0,1,26.13,50Zm0-47.237a23.37,23.37,0,1,0,23.378,23.37A23.4,23.4,0,0,0,26.13,2.767Z" transform="translate(-1.13 -1.135)" fill="url(#linear-gradient-2)"/>
        <path id="Path_14" data-name="Path 14" d="M28.938,50A21.056,21.056,0,1,1,50,28.946,21.078,21.078,0,0,1,28.938,50Zm0-41.615A20.56,20.56,0,1,0,49.5,28.946,20.587,20.587,0,0,0,28.938,8.386Z" transform="translate(-3.938 -3.943)" fill="url(#linear-gradient-3)"/>
        <path id="Path_15" data-name="Path 15" d="M32.067,50A17.925,17.925,0,1,1,49.994,32.075,17.949,17.949,0,0,1,32.067,50Zm0-35.354A17.429,17.429,0,1,0,49.5,32.075,17.452,17.452,0,0,0,32.067,14.646Z" transform="translate(-7.067 -7.072)" fill="url(#linear-gradient-4)"/>
        <path id="Path_16" data-name="Path 16" d="M34.716,50A15.273,15.273,0,1,1,49.992,34.723,15.293,15.293,0,0,1,34.716,50Zm0-30.052A14.779,14.779,0,1,0,49.5,34.723,14.8,14.8,0,0,0,34.716,19.945Z" transform="translate(-9.716 -9.721)" fill="url(#linear-gradient-5)"/>
        <path id="Path_17" data-name="Path 17" d="M37.045,50A12.943,12.943,0,1,1,49.99,37.053,12.96,12.96,0,0,1,37.045,50Zm0-25.4A12.449,12.449,0,1,0,49.5,37.048,12.465,12.465,0,0,0,37.045,24.6Z" transform="translate(-12.045 -12.05)" fill="url(#linear-gradient-6)"/>
        <path id="Path_18" data-name="Path 18" d="M42.343,50.327a7.973,7.973,0,1,1,7.973-7.973A7.982,7.982,0,0,1,42.343,50.327Zm0-15.451a7.473,7.473,0,1,0,7.473,7.473A7.48,7.48,0,0,0,42.343,34.875Z" transform="translate(-17.343 -17.351)" fill="url(#linear-gradient-7)"/>
        <path id="Path_19" data-name="Path 19" d="M39.12,50.334a11.2,11.2,0,1,1,11.2-11.2,11.213,11.213,0,0,1-11.2,11.2Zm0-21.9a10.7,10.7,0,1,0,10.7,10.7,10.712,10.712,0,0,0-10.7-10.7Z" transform="translate(-14.12 -14.127)" fill="url(#linear-gradient-8)"/>
        <path id="Path_20" data-name="Path 20" d="M40.8,50.333a9.521,9.521,0,1,1,9.519-9.519A9.529,9.529,0,0,1,40.8,50.333Zm0-18.543a9.021,9.021,0,1,0,9.019,9.024A9.031,9.031,0,0,0,40.8,31.79Z" transform="translate(-15.799 -15.806)" fill="url(#linear-gradient-9)"/>
        <path id="Path_21" data-name="Path 21" d="M43.593,50.376a6.723,6.723,0,1,1,6.723-6.723A6.731,6.731,0,0,1,43.593,50.376Zm0-12.945a6.223,6.223,0,1,0,6.223,6.223A6.229,6.229,0,0,0,43.593,37.43Z" transform="translate(-18.593 -18.626)" fill="url(#linear-gradient-10)"/>
        <path id="Path_22" data-name="Path 22" d="M44.617,50.335a5.7,5.7,0,1,1,5.7-5.7A5.7,5.7,0,0,1,44.617,50.335Zm0-10.9a5.2,5.2,0,1,0,5.2,5.2A5.2,5.2,0,0,0,44.617,39.435Z" transform="translate(-19.617 -19.63)" fill="url(#linear-gradient-11)"/>
        <path id="Path_23" data-name="Path 23" d="M45.592,50.329a4.724,4.724,0,1,1,4.722-4.722A4.727,4.727,0,0,1,45.592,50.329Zm0-8.949a4.224,4.224,0,1,0,4.222,4.227A4.227,4.227,0,0,0,45.592,41.38Z" transform="translate(-20.592 -20.599)" fill="url(#linear-gradient-12)"/>
        <path id="Path_24" data-name="Path 24" d="M46.382,50.323a3.932,3.932,0,1,1,3.932-3.932A3.939,3.939,0,0,1,46.382,50.323Zm0-7.363a3.431,3.431,0,1,0,3.431,3.431A3.437,3.437,0,0,0,46.382,42.96Z" transform="translate(-21.382 -21.389)" fill="url(#linear-gradient-3)"/>
        <path id="Path_25" data-name="Path 25" d="M47.056,50.323a3.256,3.256,0,1,1,3.256-3.256A3.26,3.26,0,0,1,47.056,50.323Zm0-6.017a2.756,2.756,0,1,0,2.756,2.756A2.758,2.758,0,0,0,47.056,44.305Z" transform="translate(-22.056 -22.064)" fill="url(#linear-gradient-14)"/>
        <circle id="Ellipse_1" data-name="Ellipse 1" cx="0.96" cy="0.96" r="0.96" transform="translate(11.267 24.067)" fill="#009fe3"/>
      </g>
    </g>
  </g>
</svg>
