<?xml version="1.0" encoding="UTF-8"?>
<svg id="Layer_2" data-name="Layer 2" xmlns="http://www.w3.org/2000/svg" xmlns:xlink="http://www.w3.org/1999/xlink" viewBox="0 0 340.82 186.51">
  <defs>
    <style>
      .cls-1 {
        fill: url(#linear-gradient);
      }

      .cls-2 {
        fill: #d4edfc;
      }

      .cls-3 {
        fill: url(#linear-gradient-3);
      }

      .cls-4 {
        fill: url(#linear-gradient-4);
      }

      .cls-5 {
        fill: url(#linear-gradient-2);
      }

      .cls-6 {
        fill: url(#linear-gradient-6);
      }

      .cls-7 {
        fill: url(#linear-gradient-5);
      }
    </style>
    <linearGradient id="linear-gradient" x1="8.73" y1="77.98" x2="160.35" y2="129.96" gradientTransform="matrix(1, 0, 0, 1, 0, 0)" gradientUnits="userSpaceOnUse">
      <stop offset="0" stop-color="#009fe3"/>
      <stop offset=".08" stop-color="#0399de"/>
      <stop offset=".19" stop-color="#0e8bd3"/>
      <stop offset=".3" stop-color="#2072bf"/>
      <stop offset=".41" stop-color="#3a50a4"/>
      <stop offset=".53" stop-color="#5a2583"/>
      <stop offset=".71" stop-color="#453f94"/>
      <stop offset=".88" stop-color="#38519f"/>
      <stop offset="1" stop-color="#3458a4"/>
    </linearGradient>
    <linearGradient id="linear-gradient-2" x1="11.38" y1="78.88" x2="157.71" y2="129.05" xlink:href="#linear-gradient"/>
    <linearGradient id="linear-gradient-3" x1="145.87" y1="86.75" x2="278.58" y2="132.26" xlink:href="#linear-gradient"/>
    <linearGradient id="linear-gradient-4" x1="148.51" y1="87.66" x2="275.94" y2="131.35" xlink:href="#linear-gradient"/>
    <linearGradient id="linear-gradient-5" x1="259.6" y1="77.61" x2="337.41" y2="104.28" xlink:href="#linear-gradient"/>
    <linearGradient id="linear-gradient-6" x1="262.23" y1="78.51" x2="334.78" y2="103.38" xlink:href="#linear-gradient"/>
  </defs>
  <g id="Layer_1-2" data-name="Layer 1">
    <path class="cls-1" d="M136.99,186.51c-3.5,0-5.35-1.85-5.35-5.35v-29.46c-6.11,9.76-14.3,17.95-24.35,24.38-10.82,6.92-23.02,10.43-36.27,10.43-9.74,0-19.02-1.88-27.59-5.58-8.56-3.69-16.16-8.83-22.59-15.26-6.43-6.43-11.57-14.04-15.26-22.59-3.7-8.57-5.58-17.85-5.58-27.59s1.88-19.07,5.58-27.74c3.7-8.66,8.83-16.31,15.26-22.74,6.42-6.42,14.03-11.56,22.59-15.26,8.58-3.7,17.87-5.58,27.59-5.58s18.77,1.88,27.45,5.58c8.66,3.7,16.31,8.79,22.74,15.11,6.43,6.33,11.61,13.88,15.4,22.45,3.8,8.58,5.73,17.86,5.73,27.6v66.26c0,3.5-1.85,5.35-5.35,5.35Zm-3.95-39.91v34.56c0,2.73,1.22,3.95,3.95,3.95s3.95-1.25,3.95-3.95V114.91c0-9.54-1.89-18.64-5.61-27.03-3.72-8.4-8.81-15.81-15.11-22.02-6.3-6.2-13.81-11.19-22.31-14.82-8.5-3.63-17.55-5.46-26.9-5.46s-18.63,1.84-27.04,5.46c-8.41,3.63-15.86,8.66-22.16,14.96-6.3,6.3-11.34,13.81-14.96,22.3-3.63,8.49-5.46,17.64-5.46,27.19s1.84,18.65,5.46,27.04c3.62,8.4,8.66,15.85,14.96,22.16,6.31,6.31,13.76,11.34,22.16,14.96,8.39,3.63,17.49,5.46,27.04,5.46,12.98,0,24.92-3.43,35.51-10.21,10.6-6.78,19.08-15.55,25.2-26.06l1.3-2.24Zm-62.02,30.61c-8.39,0-16.45-1.63-23.96-4.85-7.51-3.22-14.13-7.67-19.69-13.23-5.56-5.56-10.01-12.18-13.23-19.69-3.22-7.51-4.85-15.57-4.85-23.96s1.63-16.45,4.85-23.96c3.22-7.51,7.67-14.13,13.23-19.69,5.55-5.55,12.18-10.05,19.68-13.37,7.51-3.32,15.58-5,23.97-5s16.45,1.68,23.97,5c7.51,3.32,14.13,7.82,19.68,13.37,5.55,5.55,10.05,12.17,13.37,19.68,3.32,7.52,5,15.58,5,23.97s-1.68,16.45-5,23.97c-3.32,7.51-7.82,14.13-13.37,19.68s-12.18,10-19.69,13.23c-7.52,3.22-15.58,4.85-23.96,4.85Zm0-122.34c-8.19,0-16.07,1.64-23.4,4.88-7.35,3.25-13.83,7.65-19.26,13.08-5.43,5.43-9.78,11.91-12.93,19.25-3.14,7.34-4.74,15.21-4.74,23.41s1.59,16.08,4.74,23.41c3.15,7.34,7.5,13.82,12.93,19.25,5.43,5.43,11.91,9.78,19.25,12.93,7.34,3.14,15.21,4.74,23.41,4.74s16.07-1.59,23.41-4.74c7.35-3.15,13.82-7.5,19.25-12.93,5.43-5.43,9.83-11.91,13.08-19.26,3.24-7.34,4.88-15.21,4.88-23.4s-1.64-16.06-4.88-23.4c-3.25-7.35-7.65-13.83-13.08-19.26-5.43-5.42-11.91-9.83-19.26-13.08-7.34-3.24-15.21-4.88-23.4-4.88Zm36.91-22.96H34.12c-3.5,0-5.35-1.85-5.35-5.35,0-1.33,.5-2.56,1.49-3.66,1.01-1.12,2.31-1.69,3.86-1.69H107.93c3.69,0,5.64,1.85,5.64,5.35s-1.95,5.35-5.64,5.35ZM34.12,22.61c-1.16,0-2.08,.4-2.82,1.22-.76,.85-1.13,1.74-1.13,2.73,0,2.73,1.22,3.95,3.95,3.95H107.93c2.89,0,4.24-1.25,4.24-3.95s-1.35-3.95-4.24-3.95H34.12Z"/>
    <g>
      <path class="cls-2" d="M136.99,183.02c-1.56,0-1.85-.29-1.85-1.85v-42.33l-5.21,8.96c-5.95,10.22-14.2,18.75-24.52,25.35-10.24,6.55-21.81,9.87-34.38,9.87-9.26,0-18.08-1.78-26.21-5.29-8.15-3.52-15.39-8.4-21.51-14.52-6.12-6.12-11.01-13.36-14.52-21.51-3.51-8.13-5.29-16.95-5.29-26.21s1.78-18.13,5.3-26.36c3.52-8.25,8.4-15.53,14.52-21.64,6.11-6.11,13.35-11,21.51-14.52,8.14-3.51,16.96-5.29,26.21-5.29s17.83,1.78,26.07,5.3c8.26,3.53,15.54,8.37,21.66,14.39,6.11,6.02,11.04,13.21,14.66,21.37,3.6,8.13,5.43,16.94,5.43,26.18v66.26c0,1.56-.29,1.85-1.85,1.85ZM71.03,51.37c-8.68,0-17.03,1.74-24.81,5.18-7.75,3.42-14.58,8.07-20.32,13.8-5.75,5.75-10.35,12.59-13.67,20.35-3.33,7.78-5.02,16.12-5.02,24.79s1.69,17.02,5.02,24.79c3.32,7.75,7.92,14.6,13.67,20.35,5.75,5.75,12.6,10.35,20.35,13.67,7.77,3.33,16.11,5.02,24.79,5.02s17.01-1.69,24.78-5.02c7.76-3.33,14.6-7.93,20.35-13.67,5.74-5.74,10.38-12.57,13.8-20.32,3.44-7.78,5.18-16.13,5.18-24.82s-1.74-17.02-5.18-24.81c-3.43-7.75-8.07-14.59-13.8-20.32-5.73-5.73-12.57-10.38-20.32-13.8-7.79-3.44-16.14-5.18-24.81-5.18ZM34.12,28.42c-1.56,0-1.85-.29-1.85-1.85,0-.31,.07-.74,.59-1.33,.28-.31,.61-.52,1.26-.52H107.93c2.05,0,2.14,.6,2.14,1.85s-.09,1.85-2.14,1.85H34.12Z"/>
      <path class="cls-5" d="M136.99,183.72c-1.96,0-2.55-.6-2.55-2.55v-39.74l-3.91,6.72c-6.01,10.32-14.33,18.93-24.75,25.59-10.36,6.63-22.05,9.99-34.76,9.99-9.36,0-18.27-1.8-26.49-5.35-8.24-3.55-15.54-8.49-21.72-14.67-6.18-6.18-11.12-13.49-14.67-21.72-3.55-8.22-5.35-17.13-5.35-26.49s1.8-18.32,5.35-26.64c3.56-8.33,8.49-15.69,14.67-21.86s13.48-11.11,21.72-14.67c8.23-3.55,17.14-5.35,26.49-5.35s18.02,1.8,26.35,5.35c8.34,3.56,15.7,8.45,21.87,14.53,6.17,6.08,11.16,13.34,14.81,21.59,3.64,8.22,5.49,17.12,5.49,26.47v66.26c0,1.96-.6,2.55-2.55,2.55Zm-1.15-47.47v44.92q0,1.16,1.15,1.16t1.15-1.16V114.91c0-9.15-1.81-17.86-5.37-25.9-3.58-8.08-8.46-15.2-14.51-21.16-6.05-5.96-13.27-10.75-21.44-14.24-8.15-3.48-16.83-5.24-25.8-5.24s-17.88,1.76-25.93,5.23c-8.08,3.49-15.24,8.33-21.29,14.38s-10.88,13.26-14.37,21.42c-3.48,8.14-5.24,16.92-5.24,26.09s1.76,17.89,5.24,25.93c3.48,8.07,8.32,15.23,14.37,21.29,6.05,6.06,13.22,10.89,21.29,14.38,8.04,3.47,16.76,5.23,25.93,5.23,12.43,0,23.88-3.29,34.01-9.76,10.23-6.54,18.4-14.99,24.29-25.11l6.52-11.2Zm-64.81,43.77c-8.77,0-17.2-1.71-25.06-5.08-7.83-3.36-14.75-8.01-20.56-13.82-5.81-5.81-10.46-12.73-13.82-20.56-3.37-7.86-5.08-16.29-5.08-25.06s1.71-17.2,5.08-25.06c3.36-7.84,8.01-14.76,13.82-20.56,5.8-5.8,12.7-10.49,20.53-13.95,7.87-3.47,16.32-5.24,25.1-5.24s17.22,1.76,25.1,5.24c7.83,3.46,14.74,8.16,20.53,13.95,5.79,5.79,10.49,12.7,13.95,20.53,3.48,7.88,5.24,16.32,5.24,25.1s-1.76,17.22-5.24,25.1c-3.46,7.82-8.15,14.73-13.95,20.53-5.81,5.81-12.73,10.46-20.57,13.82-7.86,3.37-16.29,5.08-25.06,5.08Zm0-127.94c-8.58,0-16.84,1.72-24.53,5.12-7.67,3.39-14.43,7.99-20.11,13.66-5.68,5.68-10.23,12.45-13.52,20.13-3.29,7.69-4.96,15.94-4.96,24.51s1.67,16.83,4.96,24.51c3.29,7.67,7.83,14.44,13.52,20.13,5.69,5.69,12.46,10.24,20.13,13.52,7.68,3.29,15.93,4.96,24.51,4.96s16.82-1.67,24.51-4.96c7.67-3.29,14.45-7.84,20.13-13.52s10.27-12.44,13.66-20.1c3.4-7.7,5.12-15.95,5.12-24.53s-1.72-16.83-5.12-24.53c-3.39-7.67-7.99-14.44-13.66-20.11-5.67-5.67-12.43-10.26-20.11-13.66-7.7-3.4-15.95-5.12-24.53-5.12Zm36.91-22.96H34.12c-1.96,0-2.55-.6-2.55-2.55,0-.4,.08-1.02,.77-1.8,.32-.35,.81-.75,1.78-.75H107.93c2.4,0,2.84,.86,2.84,2.55s-.44,2.55-2.84,2.55Zm-73.81-3.71c-.44,0-.58,.12-.74,.29-.41,.46-.41,.73-.41,.86q0,1.16,1.16,1.16H107.93c1.45,0,1.45-.09,1.45-1.16s0-1.15-1.45-1.15H34.12Z"/>
    </g>
    <path class="cls-3" d="M256.14,186.51c-3.5,0-5.35-1.85-5.35-5.35v-15.54c-5.74,7.83-12.21,13.27-19.23,16.18-7.51,3.12-14.78,4.7-21.63,4.7s-13.74-1.39-19.9-4.13c-6.16-2.74-11.61-6.45-16.19-11.04-4.59-4.59-8.26-10.09-10.9-16.35-2.64-6.25-3.98-12.99-3.98-20.03V49.52c0-1.56,.57-2.86,1.69-3.86,1.1-.99,2.33-1.49,3.66-1.49,3.5,0,5.35,1.85,5.35,5.35v85.44c0,5.7,1.06,11.08,3.14,16,2.08,4.93,5.01,9.25,8.71,12.85,3.7,3.61,8.03,6.49,12.87,8.58,4.82,2.08,10.06,3.14,15.56,3.14s11.03-1.06,15.85-3.14c4.84-2.08,9.12-4.92,12.72-8.43,3.6-3.51,6.54-7.69,8.72-12.43,2.18-4.74,3.38-9.83,3.57-15.13V49.52c0-3.5,1.85-5.35,5.35-5.35,1.33,0,2.56,.5,3.66,1.49,1.12,1.01,1.69,2.31,1.69,3.86V181.16c0,1.55-.57,2.85-1.68,3.86-1.1,.99-2.33,1.49-3.67,1.49Zm-3.95-25.32v19.97c0,2.73,1.22,3.95,3.95,3.95,.99,0,1.88-.37,2.73-1.13,.82-.74,1.22-1.66,1.22-2.82V49.52c0-1.16-.4-2.08-1.22-2.82-.85-.76-1.74-1.13-2.73-1.13-2.7,0-3.95,1.26-3.95,3.95v86.89c-.2,5.51-1.44,10.79-3.7,15.69-2.25,4.9-5.28,9.22-9.01,12.85-3.73,3.63-8.15,6.56-13.14,8.71-5,2.16-10.52,3.25-16.41,3.25s-11.12-1.09-16.12-3.25c-4.99-2.15-9.46-5.13-13.29-8.86-3.83-3.73-6.86-8.21-9.02-13.31-2.16-5.09-3.25-10.66-3.25-16.55V49.52c0-2.7-1.25-3.95-3.95-3.95-.99,0-1.89,.37-2.73,1.13-.82,.74-1.22,1.66-1.22,2.82v85.44c0,6.85,1.3,13.41,3.87,19.49,2.57,6.09,6.14,11.44,10.6,15.91,4.46,4.47,9.77,8.09,15.77,10.75,5.98,2.66,12.48,4.01,19.33,4.01s13.75-1.55,21.09-4.6c7.3-3.03,13.99-8.91,19.89-17.48l1.27-1.85Z"/>
    <g>
      <path class="cls-2" d="M256.14,183.02c-1.56,0-1.85-.29-1.85-1.85v-26.71l-5.1,7.4c-5.67,8.23-12.05,13.86-18.97,16.73-7.08,2.94-13.91,4.44-20.29,4.44s-12.77-1.29-18.48-3.83c-5.77-2.56-10.86-6.03-15.14-10.32-4.28-4.27-7.69-9.4-10.15-15.24-2.46-5.82-3.7-12.11-3.7-18.67V49.52c0-.56,.15-.93,.52-1.26,.58-.53,1.02-.59,1.33-.59,1.56,0,1.85,.29,1.85,1.85v85.44c0,6.17,1.15,12.01,3.42,17.36,2.26,5.36,5.46,10.07,9.49,13.99,4.01,3.91,8.69,7.03,13.92,9.28,5.26,2.27,10.96,3.43,16.94,3.43s11.98-1.15,17.24-3.43c5.23-2.25,9.86-5.33,13.77-9.14,3.91-3.81,7.09-8.34,9.45-13.48,2.37-5.16,3.68-10.7,3.89-16.47V49.52c0-1.56,.3-1.85,1.86-1.85,.31,0,.74,.07,1.33,.59,.37,.33,.52,.7,.52,1.26V181.16c0,.66-.21,.98-.53,1.27-.58,.52-1.01,.59-1.33,.59Z"/>
      <path class="cls-4" d="M256.14,183.72c-1.96,0-2.55-.6-2.55-2.55v-24.47l-3.82,5.55c-5.75,8.34-12.23,14.05-19.27,16.98-7.17,2.98-14.08,4.49-20.56,4.49s-12.97-1.31-18.76-3.89c-5.84-2.6-11.01-6.12-15.35-10.46-4.34-4.34-7.81-9.54-10.3-15.46-2.49-5.91-3.76-12.28-3.76-18.95V49.52c0-.76,.23-1.31,.76-1.78,.77-.69,1.39-.77,1.8-.77,1.96,0,2.55,.6,2.55,2.55v85.44c0,6.08,1.13,11.83,3.36,17.09,2.23,5.27,5.37,9.9,9.33,13.76,3.94,3.85,8.56,6.92,13.71,9.14,5.18,2.24,10.78,3.37,16.67,3.37s11.79-1.13,16.96-3.37c5.15-2.22,9.71-5.25,13.56-9,3.85-3.75,6.98-8.21,9.3-13.27,2.33-5.07,3.62-10.52,3.82-16.2V49.52c0-1.96,.6-2.55,2.55-2.55,.4,0,1.03,.08,1.8,.77,.52,.47,.75,1.02,.75,1.78V181.16c0,.77-.23,1.3-.76,1.79-.77,.69-1.39,.77-1.79,.77Zm-1.15-31.51v28.96q0,1.16,1.15,1.16c.14,0,.4,0,.86-.41,.18-.16,.3-.3,.3-.75V49.52c0-.4-.1-.57-.29-.74-.46-.41-.73-.41-.86-.41q-1.15,0-1.15,1.15v86.99c-.21,5.89-1.54,11.52-3.95,16.76-2.4,5.21-5.63,9.81-9.6,13.68-3.97,3.87-8.68,6.99-13.99,9.28-5.35,2.31-11.24,3.48-17.51,3.48s-11.87-1.17-17.22-3.48c-5.31-2.29-10.06-5.46-14.13-9.42-4.1-3.99-7.34-8.77-9.64-14.22-2.31-5.44-3.47-11.37-3.47-17.64V49.52q0-1.15-1.15-1.15c-.14,0-.4,0-.86,.41-.2,.18-.29,.34-.29,.74v85.44c0,6.47,1.23,12.67,3.65,18.4,2.43,5.75,5.79,10.81,10,15.02,4.22,4.22,9.25,7.65,14.93,10.17,5.62,2.5,11.74,3.77,18.19,3.77s13.02-1.47,20.02-4.38c6.79-2.82,13.07-8.37,18.66-16.48l6.37-9.25Z"/>
    </g>
    <path class="cls-7" d="M305.25,186.51c-3.5,0-5.35-1.85-5.35-5.35V54.87h-24.87c-3.5,0-5.35-1.85-5.35-5.35s1.85-5.35,5.35-5.35h24.87V5.35c0-3.5,1.85-5.35,5.35-5.35s5.35,1.85,5.35,5.35V44.17h24.87c3.5,0,5.35,1.85,5.35,5.35s-1.85,5.35-5.35,5.35h-24.87v126.29c0,3.5-1.85,5.35-5.35,5.35Zm-30.22-140.94c-2.7,0-3.95,1.26-3.95,3.95s1.22,3.95,3.95,3.95h26.27v127.69c0,2.73,1.22,3.95,3.95,3.95s3.95-1.26,3.95-3.95V53.47h26.27c2.7,0,3.95-1.25,3.95-3.95s-1.26-3.95-3.95-3.95h-26.27V5.35c0-2.7-1.26-3.95-3.95-3.95s-3.95,1.26-3.95,3.95V45.57h-26.27Z"/>
    <g>
      <path class="cls-2" d="M305.25,183.02c-1.56,0-1.85-.29-1.85-1.85V51.37h-28.37c-1.56,0-1.85-.29-1.85-1.85s.29-1.85,1.85-1.85h28.37V5.35c0-1.56,.29-1.85,1.85-1.85s1.85,.29,1.85,1.85V47.67h28.37c1.56,0,1.85,.29,1.85,1.85s-.29,1.85-1.85,1.85h-28.37V181.16c0,1.56-.29,1.85-1.85,1.85Z"/>
      <path class="cls-6" d="M305.25,183.72c-1.96,0-2.55-.6-2.55-2.55V52.07h-27.67c-1.96,0-2.55-.6-2.55-2.55s.6-2.55,2.55-2.55h27.67V5.35c0-1.96,.6-2.55,2.55-2.55s2.55,.6,2.55,2.55V46.97h27.67c1.96,0,2.55,.6,2.55,2.55s-.6,2.55-2.55,2.55h-27.67V181.16c0,1.96-.6,2.55-2.55,2.55Zm-30.22-135.35q-1.15,0-1.15,1.15t1.15,1.16h29.07V181.16q0,1.16,1.15,1.16,1.16,0,1.16-1.16V50.68h29.07q1.16,0,1.16-1.16,0-1.15-1.16-1.15h-29.07V5.35q0-1.15-1.16-1.15-1.15,0-1.15,1.15V48.37h-29.07Z"/>
    </g>
  </g>
</svg>