<?xml version="1.0" encoding="UTF-8"?>
<svg id="Layer_2" data-name="Layer 2" xmlns="http://www.w3.org/2000/svg" xmlns:xlink="http://www.w3.org/1999/xlink" viewBox="0 0 49.23 49.23">
  <defs>
    <style>
      .cls-1 {
        fill: url(#New_Gradient_Swatch);
      }

      .cls-2 {
        fill: #bfbfbf;
      }

      .cls-3 {
        fill: url(#New_Gradient_Swatch-2);
      }
    </style>
    <linearGradient id="New_Gradient_Swatch" data-name="New Gradient Swatch" x1="24.42" y1="24.62" x2="24.81" y2="24.62" gradientTransform="matrix(1, 0, 0, 1, 0, 0)" gradientUnits="userSpaceOnUse">
      <stop offset="0" stop-color="#009fe3"/>
      <stop offset=".08" stop-color="#0399de"/>
      <stop offset=".19" stop-color="#0e8bd3"/>
      <stop offset=".3" stop-color="#2072bf"/>
      <stop offset=".41" stop-color="#3a50a4"/>
      <stop offset=".53" stop-color="#5a2583"/>
      <stop offset=".71" stop-color="#453f94"/>
      <stop offset=".88" stop-color="#38519f"/>
      <stop offset="1" stop-color="#3458a4"/>
    </linearGradient>
    <linearGradient id="New_Gradient_Swatch-2" data-name="New Gradient Swatch" x1="28.38" y1="92.84" x2="28.77" y2="92.84" gradientTransform="translate(117.46 -3.96) rotate(90)" xlink:href="#New_Gradient_Swatch"/>
  </defs>
  <g id="Layer_1-2" data-name="Layer 1">
    <g>
      <g>
        <polygon class="cls-2" points="24.33 0 24.73 14.54 24.9 32.09 24.73 49.23 24.33 0"/>
        <polygon class="cls-1" points="24.42 0 24.66 10.45 24.66 17.25 24.81 26.09 24.81 49.23 24.42 32.32 24.42 23.14 24.42 0"/>
      </g>
      <g>
        <polygon class="cls-2" points="49.23 24.33 34.7 24.73 17.14 24.9 0 24.73 49.23 24.33"/>
        <polygon class="cls-3" points="49.23 24.42 38.79 24.66 31.98 24.66 23.14 24.81 0 24.81 16.92 24.42 26.09 24.42 49.23 24.42"/>
      </g>
    </g>
  </g>
</svg>