<svg xmlns="http://www.w3.org/2000/svg" xmlns:xlink="http://www.w3.org/1999/xlink" width="19" height="19" viewBox="0 0 19 19">
  <defs>
    <filter id="Ellipse_297" x="0" y="0" width="19" height="19" filterUnits="userSpaceOnUse">
      <feOffset dx="1" dy="1" input="SourceAlpha"/>
      <feGaussianBlur stdDeviation="0.5" result="blur"/>
      <feFlood flood-color="#fff" flood-opacity="0.745"/>
      <feComposite operator="in" in2="blur"/>
      <feComposite in="SourceGraphic"/>
    </filter>
    <linearGradient id="linear-gradient" y1="0.5" x2="1" y2="0.5" gradientUnits="objectBoundingBox">
      <stop offset="0" stop-color="#0059a6"/>
      <stop offset="0.1" stop-color="#0556a1"/>
      <stop offset="0.22" stop-color="#134f93"/>
      <stop offset="0.35" stop-color="#2c427d"/>
      <stop offset="0.49" stop-color="#4e315e"/>
      <stop offset="0.53" stop-color="#5a2c54"/>
      <stop offset="0.67" stop-color="#353e75"/>
      <stop offset="0.8" stop-color="#184c90"/>
      <stop offset="0.92" stop-color="#0655a0"/>
      <stop offset="1" stop-color="#0059a6"/>
    </linearGradient>
    <linearGradient id="linear-gradient-2" y1="0.5" x2="1" y2="0.5" gradientUnits="objectBoundingBox">
      <stop offset="0" stop-color="#009fe3"/>
      <stop offset="0.08" stop-color="#0399de"/>
      <stop offset="0.19" stop-color="#0e8bd3"/>
      <stop offset="0.3" stop-color="#2072bf"/>
      <stop offset="0.41" stop-color="#3a50a4"/>
      <stop offset="0.53" stop-color="#5a2583"/>
      <stop offset="0.71" stop-color="#453f94"/>
      <stop offset="0.88" stop-color="#38519f"/>
      <stop offset="1" stop-color="#3458a4"/>
    </linearGradient>
    <linearGradient id="linear-gradient-3" x1="0" y1="0.5" x2="1" y2="0.5" xlink:href="#linear-gradient"/>
    <linearGradient id="linear-gradient-4" x1="0" y1="0.5" x2="1.001" y2="0.5" xlink:href="#linear-gradient-2"/>
    <linearGradient id="linear-gradient-5" x1="0" y1="0.5" x2="1" y2="0.5" xlink:href="#linear-gradient"/>
    <linearGradient id="linear-gradient-6" x1="0" y1="0.499" x2="1.001" y2="0.499" xlink:href="#linear-gradient-2"/>
  </defs>
  <g id="Group_12215" data-name="Group 12215" transform="translate(-704.5 -241.5)">
    <g transform="matrix(1, 0, 0, 1, 704.5, 241.5)" filter="url(#Ellipse_297)">
      <circle id="Ellipse_297-2" data-name="Ellipse 297" cx="8" cy="8" r="8" transform="translate(0.5 0.5)"/>
    </g>
    <g id="Layer_1" data-name="Layer 1" transform="translate(687.973 225.31)">
      <g id="Group_5" data-name="Group 5" transform="translate(17.027 17.029)">
        <path id="Path_18" data-name="Path 18" d="M42.37,50.38a8,8,0,1,1,8-8A8.009,8.009,0,0,1,42.37,50.38Zm0-15.5a7.5,7.5,0,1,0,7.5,7.5A7.505,7.505,0,0,0,42.37,34.877Z" transform="translate(-34.37 -34.38)" fill="url(#linear-gradient)"/>
        <path id="Path_21" data-name="Path 21" d="M43.619,50.429a6.749,6.749,0,1,1,6.749-6.749A6.758,6.758,0,0,1,43.619,50.429Zm0-13a6.247,6.247,0,1,0,6.247,6.247A6.254,6.254,0,0,0,43.619,37.432Z" transform="translate(-35.619 -35.655)" fill="url(#linear-gradient-2)"/>
        <path id="Path_22" data-name="Path 22" d="M44.644,50.388a5.724,5.724,0,1,1,5.724-5.724A5.731,5.731,0,0,1,44.644,50.388Zm0-10.951a5.222,5.222,0,1,0,5.222,5.222A5.227,5.227,0,0,0,44.644,39.438Z" transform="translate(-36.644 -36.659)" fill="url(#linear-gradient-3)"/>
        <path id="Path_23" data-name="Path 23" d="M45.619,50.382a4.751,4.751,0,1,1,4.749-4.749A4.754,4.754,0,0,1,45.619,50.382Zm0-9a4.248,4.248,0,1,0,4.246,4.251A4.251,4.251,0,0,0,45.619,41.383Z" transform="translate(-37.619 -37.629)" fill="url(#linear-gradient-4)"/>
        <path id="Path_24" data-name="Path 24" d="M46.382,50.323a3.932,3.932,0,1,1,3.932-3.932A3.939,3.939,0,0,1,46.382,50.323Zm0-7.363a3.431,3.431,0,1,0,3.431,3.431A3.437,3.437,0,0,0,46.382,42.96Z" transform="translate(-38.382 -38.392)" fill="url(#linear-gradient-5)"/>
        <path id="Path_25" data-name="Path 25" d="M47.056,50.323a3.256,3.256,0,1,1,3.256-3.256A3.26,3.26,0,0,1,47.056,50.323Zm0-6.017a2.756,2.756,0,1,0,2.756,2.756A2.758,2.758,0,0,0,47.056,44.305Z" transform="translate(-39.056 -39.066)" fill="url(#linear-gradient-6)"/>
      </g>
    </g>
  </g>
</svg>
