<?xml version="1.0" encoding="UTF-8"?>
<svg id="Layer_2" data-name="Layer 2" xmlns="http://www.w3.org/2000/svg" xmlns:xlink="http://www.w3.org/1999/xlink" viewBox="0 0 193.77 271.12">
  <defs>
    <style>
      .cls-1 {
        fill: url(#New_Gradient_Swatch-15);
      }

      .cls-2 {
        fill: url(#New_Gradient_Swatch-16);
      }

      .cls-3 {
        fill: url(#New_Gradient_Swatch-17);
      }

      .cls-4 {
        fill: url(#New_Gradient_Swatch-12);
      }

      .cls-5 {
        fill: url(#New_Gradient_Swatch-11);
      }

      .cls-6 {
        fill: url(#New_Gradient_Swatch-14);
      }

      .cls-7 {
        fill: url(#New_Gradient_Swatch-13);
      }

      .cls-8 {
        fill: url(#New_Gradient_Swatch-10);
      }

      .cls-9 {
        fill: url(#New_Gradient_Swatch);
      }

      .cls-10 {
        fill: url(#linear-gradient);
      }

      .cls-11 {
        fill: #009fe3;
      }

      .cls-12 {
        fill: #bfbfbf;
      }

      .cls-13 {
        fill: url(#New_Gradient_Swatch-5);
      }

      .cls-14 {
        fill: url(#New_Gradient_Swatch-4);
      }

      .cls-15 {
        fill: url(#New_Gradient_Swatch-7);
      }

      .cls-16 {
        fill: url(#New_Gradient_Swatch-6);
      }

      .cls-17 {
        fill: url(#New_Gradient_Swatch-8);
      }

      .cls-18 {
        fill: url(#New_Gradient_Swatch-9);
      }

      .cls-19 {
        fill: url(#New_Gradient_Swatch-3);
      }

      .cls-20 {
        fill: url(#New_Gradient_Swatch-2);
      }

      .cls-21 {
        fill: url(#linear-gradient-8);
      }

      .cls-22 {
        fill: url(#linear-gradient-9);
      }

      .cls-23 {
        fill: url(#linear-gradient-3);
      }

      .cls-24 {
        fill: url(#linear-gradient-4);
      }

      .cls-25 {
        fill: url(#linear-gradient-2);
      }

      .cls-26 {
        fill: url(#linear-gradient-6);
      }

      .cls-27 {
        fill: url(#linear-gradient-7);
      }

      .cls-28 {
        fill: url(#linear-gradient-5);
      }

      .cls-29 {
        fill: url(#linear-gradient-12);
      }

      .cls-30 {
        fill: url(#linear-gradient-10);
      }

      .cls-31 {
        fill: url(#linear-gradient-11);
      }
    </style>
    <linearGradient id="New_Gradient_Swatch" data-name="New Gradient Swatch" x1="0" y1="220.81" x2="100.63" y2="220.81" gradientTransform="matrix(1, 0, 0, 1, 0, 0)" gradientUnits="userSpaceOnUse">
      <stop offset="0" stop-color="#009fe3"/>
      <stop offset=".08" stop-color="#0399de"/>
      <stop offset=".19" stop-color="#0e8bd3"/>
      <stop offset=".3" stop-color="#2072bf"/>
      <stop offset=".41" stop-color="#3a50a4"/>
      <stop offset=".53" stop-color="#5a2583"/>
      <stop offset=".71" stop-color="#453f94"/>
      <stop offset=".88" stop-color="#38519f"/>
      <stop offset="1" stop-color="#3458a4"/>
    </linearGradient>
    <linearGradient id="New_Gradient_Swatch-2" data-name="New Gradient Swatch" x1="2.27" y1="220.82" x2="98.36" y2="220.82" xlink:href="#New_Gradient_Swatch"/>
    <linearGradient id="linear-gradient" x1="7.88" y1="220.82" x2="92.75" y2="220.82" gradientTransform="matrix(1, 0, 0, 1, 0, 0)" gradientUnits="userSpaceOnUse">
      <stop offset="0" stop-color="#0059a6"/>
      <stop offset=".1" stop-color="#0556a1"/>
      <stop offset=".22" stop-color="#134f93"/>
      <stop offset=".35" stop-color="#2c427d"/>
      <stop offset=".49" stop-color="#4e315e"/>
      <stop offset=".53" stop-color="#5a2c54"/>
      <stop offset=".67" stop-color="#353e75"/>
      <stop offset=".8" stop-color="#184c90"/>
      <stop offset=".92" stop-color="#0655a0"/>
      <stop offset="1" stop-color="#0059a6"/>
    </linearGradient>
    <linearGradient id="New_Gradient_Swatch-3" data-name="New Gradient Swatch" x1="14.15" y1="220.82" x2="86.48" y2="220.82" xlink:href="#New_Gradient_Swatch"/>
    <linearGradient id="linear-gradient-2" x1="19.45" y1="220.82" x2="81.18" y2="220.82" xlink:href="#linear-gradient"/>
    <linearGradient id="New_Gradient_Swatch-4" data-name="New Gradient Swatch" x1="24.1" y1="220.82" x2="76.53" y2="220.82" xlink:href="#New_Gradient_Swatch"/>
    <linearGradient id="linear-gradient-3" x1="34.37" x2="66.26" xlink:href="#linear-gradient"/>
    <linearGradient id="linear-gradient-4" x1="27.92" y1="220.82" x2="72.71" y2="220.82" xlink:href="#linear-gradient"/>
    <linearGradient id="New_Gradient_Swatch-5" data-name="New Gradient Swatch" x1="31.28" y1="220.82" x2="69.35" y2="220.82" xlink:href="#New_Gradient_Swatch"/>
    <linearGradient id="New_Gradient_Swatch-6" data-name="New Gradient Swatch" x1="36.88" y1="220.86" x2="63.75" y2="220.86" xlink:href="#New_Gradient_Swatch"/>
    <linearGradient id="linear-gradient-5" x1="38.92" y1="220.82" x2="61.71" y2="220.82" xlink:href="#linear-gradient"/>
    <linearGradient id="New_Gradient_Swatch-7" data-name="New Gradient Swatch" x1="40.87" y1="220.82" x2="59.76" y2="220.82" xlink:href="#New_Gradient_Swatch"/>
    <linearGradient id="linear-gradient-6" x1="42.45" x2="58.17" xlink:href="#linear-gradient"/>
    <linearGradient id="New_Gradient_Swatch-8" data-name="New Gradient Swatch" x1="43.8" x2="56.83" xlink:href="#New_Gradient_Swatch"/>
    <linearGradient id="New_Gradient_Swatch-9" data-name="New Gradient Swatch" x1="-320.55" y1="-328.25" x2="-318.43" y2="-328.25" gradientTransform="translate(208.52 560.84) rotate(33.36)" xlink:href="#New_Gradient_Swatch"/>
    <linearGradient id="New_Gradient_Swatch-10" data-name="New Gradient Swatch" x1="46.46" y1="182.6" x2="105.6" y2="182.6" xlink:href="#New_Gradient_Swatch"/>
    <linearGradient id="New_Gradient_Swatch-11" data-name="New Gradient Swatch" x1="47.79" y1="182.6" x2="104.27" y2="182.6" xlink:href="#New_Gradient_Swatch"/>
    <linearGradient id="linear-gradient-7" x1="51.09" y1="182.6" x2="100.97" y2="182.6" xlink:href="#linear-gradient"/>
    <linearGradient id="New_Gradient_Swatch-12" data-name="New Gradient Swatch" x1="54.77" y1="182.6" x2="97.29" y2="182.6" xlink:href="#New_Gradient_Swatch"/>
    <linearGradient id="linear-gradient-8" x1="57.89" y1="182.6" x2="94.17" y2="182.6" xlink:href="#linear-gradient"/>
    <linearGradient id="New_Gradient_Swatch-13" data-name="New Gradient Swatch" x1="60.62" y1="182.6" x2="91.43" y2="182.6" xlink:href="#New_Gradient_Swatch"/>
    <linearGradient id="linear-gradient-9" x1="66.66" y1="182.6" x2="85.4" y2="182.6" xlink:href="#linear-gradient"/>
    <linearGradient id="linear-gradient-10" x1="62.87" y1="182.6" x2="89.19" y2="182.6" xlink:href="#linear-gradient"/>
    <linearGradient id="New_Gradient_Swatch-14" data-name="New Gradient Swatch" x1="64.84" y1="182.6" x2="87.22" y2="182.6" xlink:href="#New_Gradient_Swatch"/>
    <linearGradient id="New_Gradient_Swatch-15" data-name="New Gradient Swatch" x1="68.13" y1="182.63" x2="83.93" y2="182.63" xlink:href="#New_Gradient_Swatch"/>
    <linearGradient id="linear-gradient-11" x1="69.33" y1="182.6" x2="82.72" y2="182.6" xlink:href="#linear-gradient"/>
    <linearGradient id="New_Gradient_Swatch-16" data-name="New Gradient Swatch" x1="70.48" y1="182.6" x2="81.58" y2="182.6" xlink:href="#New_Gradient_Swatch"/>
    <linearGradient id="linear-gradient-12" x1="71.41" y1="182.6" x2="80.65" y2="182.6" xlink:href="#linear-gradient"/>
    <linearGradient id="New_Gradient_Swatch-17" data-name="New Gradient Swatch" x1="72.2" y1="182.6" x2="79.86" y2="182.6" xlink:href="#New_Gradient_Swatch"/>
  </defs>
  <g id="Layer_1-2" data-name="Layer 1">
    <g>
      <g>
        <path class="cls-9" d="M50.31,271.12c-27.74,0-50.31-22.57-50.31-50.31s22.57-50.31,50.31-50.31,50.31,22.57,50.31,50.31-22.57,50.31-50.31,50.31Zm0-99.63c-27.19,0-49.31,22.12-49.31,49.31s22.12,49.31,49.31,49.31,49.31-22.12,49.31-49.31-22.12-49.31-49.31-49.31Z"/>
        <path class="cls-20" d="M50.31,268.87c-26.49,0-48.05-21.55-48.05-48.05s21.55-48.05,48.05-48.05,48.05,21.55,48.05,48.05-21.55,48.05-48.05,48.05Zm0-95.1c-25.94,0-47.05,21.11-47.05,47.05s21.11,47.05,47.05,47.05,47.05-21.11,47.05-47.05-21.11-47.05-47.05-47.05Z"/>
        <path class="cls-10" d="M50.31,263.25c-23.4,0-42.43-19.04-42.43-42.43s19.03-42.43,42.43-42.43,42.43,19.03,42.43,42.43-19.03,42.43-42.43,42.43Zm0-83.86c-22.85,0-41.43,18.59-41.43,41.43s18.59,41.43,41.43,41.43,41.43-18.59,41.43-41.43-18.59-41.43-41.43-41.43Z"/>
        <path class="cls-19" d="M50.31,256.99c-19.94,0-36.17-16.23-36.17-36.17s16.23-36.17,36.17-36.17,36.17,16.23,36.17,36.17-16.23,36.17-36.17,36.17Zm0-71.34c-19.39,0-35.17,15.78-35.17,35.17s15.78,35.17,35.17,35.17,35.17-15.78,35.17-35.17-15.78-35.17-35.17-35.17Z"/>
        <path class="cls-25" d="M50.31,251.69c-17.02,0-30.87-13.85-30.87-30.87s13.85-30.87,30.87-30.87,30.87,13.85,30.87,30.87-13.85,30.87-30.87,30.87Zm0-60.74c-16.47,0-29.87,13.4-29.87,29.87s13.4,29.87,29.87,29.87,29.87-13.4,29.87-29.87-13.4-29.87-29.87-29.87Z"/>
        <path class="cls-14" d="M50.31,247.03c-14.45,0-26.21-11.76-26.21-26.21s11.76-26.21,26.21-26.21,26.21,11.76,26.21,26.21-11.76,26.21-26.21,26.21Zm0-51.43c-13.9,0-25.21,11.31-25.21,25.21s11.31,25.21,25.21,25.21,25.21-11.31,25.21-25.21-11.31-25.21-25.21-25.21Z"/>
        <path class="cls-23" d="M50.31,236.76c-8.79,0-15.94-7.15-15.94-15.94s7.15-15.94,15.94-15.94,15.94,7.15,15.94,15.94-7.15,15.94-15.94,15.94Zm0-30.89c-8.24,0-14.94,6.7-14.94,14.94s6.7,14.94,14.94,14.94,14.94-6.7,14.94-14.94-6.7-14.94-14.94-14.94Z"/>
        <path class="cls-24" d="M50.31,243.21c-12.35,0-22.39-10.05-22.39-22.39s10.05-22.39,22.39-22.39,22.4,10.05,22.4,22.39-10.05,22.39-22.4,22.39Zm0-43.79c-11.8,0-21.39,9.6-21.39,21.39s9.6,21.39,21.39,21.39,21.4-9.6,21.4-21.39-9.6-21.39-21.4-21.39Z"/>
        <path class="cls-13" d="M50.31,239.85c-10.5,0-19.03-8.54-19.03-19.04s8.54-19.03,19.03-19.03,19.03,8.54,19.03,19.03-8.54,19.04-19.03,19.04Zm0-37.07c-9.94,0-18.03,8.09-18.03,18.03s8.09,18.04,18.03,18.04,18.03-8.09,18.03-18.04-8.09-18.03-18.03-18.03Z"/>
        <path class="cls-16" d="M50.31,234.3c-7.41,0-13.44-6.03-13.44-13.44s6.03-13.44,13.44-13.44,13.44,6.03,13.44,13.44-6.03,13.44-13.44,13.44Zm0-25.88c-6.86,0-12.44,5.58-12.44,12.44s5.58,12.44,12.44,12.44,12.44-5.58,12.44-12.44-5.58-12.44-12.44-12.44Z"/>
        <path class="cls-28" d="M50.31,232.21c-6.28,0-11.39-5.11-11.39-11.39s5.11-11.39,11.39-11.39,11.39,5.11,11.39,11.39-5.11,11.39-11.39,11.39Zm0-21.79c-5.73,0-10.39,4.66-10.39,10.39s4.66,10.39,10.39,10.39,10.39-4.66,10.39-10.39-4.66-10.39-10.39-10.39Z"/>
        <path class="cls-15" d="M50.31,230.26c-5.21,0-9.44-4.24-9.44-9.44s4.24-9.44,9.44-9.44,9.44,4.24,9.44,9.44-4.24,9.44-9.44,9.44Zm0-17.89c-4.66,0-8.44,3.79-8.44,8.44s3.79,8.44,8.44,8.44,8.44-3.79,8.44-8.44-3.79-8.44-8.44-8.44Z"/>
        <path class="cls-26" d="M50.31,228.68c-4.33,0-7.86-3.53-7.86-7.86s3.53-7.86,7.86-7.86,7.86,3.53,7.86,7.86-3.53,7.86-7.86,7.86Zm0-14.72c-3.78,0-6.86,3.08-6.86,6.86s3.08,6.86,6.86,6.86,6.86-3.08,6.86-6.86-3.08-6.86-6.86-6.86Z"/>
        <path class="cls-17" d="M50.31,227.32c-3.59,0-6.51-2.92-6.51-6.51s2.92-6.51,6.51-6.51,6.51,2.92,6.51,6.51-2.92,6.51-6.51,6.51Zm0-12.03c-3.04,0-5.51,2.47-5.51,5.51s2.47,5.51,5.51,5.51,5.51-2.47,5.51-5.51-2.47-5.51-5.51-5.51Z"/>
      </g>
      <g>
        <polygon class="cls-12" points="193.39 0 152.33 66.22 101.38 145.28 50.12 221.49 193.39 0"/>
        <polygon class="cls-18" points="193.77 .25 164.08 47.72 144.04 78.17 118.68 118.17 50.5 221.74 98.57 144.87 125.59 103.82 193.77 .25"/>
      </g>
      <g>
        <path class="cls-8" d="M76.03,212.17c-16.31,0-29.57-13.27-29.57-29.57s13.27-29.57,29.57-29.57,29.57,13.27,29.57,29.57-13.27,29.57-29.57,29.57Zm0-58.56c-15.98,0-28.98,13-28.98,28.98s13,28.98,28.98,28.98,28.98-13,28.98-28.98-13-28.98-28.98-28.98Z"/>
        <path class="cls-5" d="M76.03,210.84c-15.57,0-28.24-12.67-28.24-28.24s12.67-28.24,28.24-28.24,28.24,12.67,28.24,28.24-12.67,28.24-28.24,28.24Zm0-55.89c-15.25,0-27.65,12.4-27.65,27.65s12.4,27.65,27.65,27.65,27.65-12.4,27.65-27.65-12.4-27.65-27.65-27.65Z"/>
        <path class="cls-27" d="M76.03,207.54c-13.75,0-24.94-11.19-24.94-24.94s11.19-24.94,24.94-24.94,24.94,11.19,24.94,24.94-11.19,24.94-24.94,24.94Zm0-49.29c-13.43,0-24.35,10.92-24.35,24.35s10.92,24.35,24.35,24.35,24.35-10.92,24.35-24.35-10.92-24.35-24.35-24.35Z"/>
        <path class="cls-4" d="M76.03,203.86c-11.72,0-21.26-9.54-21.26-21.26s9.54-21.26,21.26-21.26,21.26,9.54,21.26,21.26-9.54,21.26-21.26,21.26Zm0-41.93c-11.4,0-20.67,9.27-20.67,20.67s9.27,20.67,20.67,20.67,20.67-9.27,20.67-20.67-9.27-20.67-20.67-20.67Z"/>
        <path class="cls-21" d="M76.03,200.74c-10,0-18.14-8.14-18.14-18.14s8.14-18.14,18.14-18.14,18.14,8.14,18.14,18.14-8.14,18.14-18.14,18.14Zm0-35.7c-9.68,0-17.55,7.88-17.55,17.55s7.88,17.55,17.55,17.55,17.55-7.88,17.55-17.55-7.88-17.55-17.55-17.55Z"/>
        <path class="cls-7" d="M76.03,198.01c-8.5,0-15.41-6.91-15.41-15.41s6.91-15.41,15.41-15.41,15.41,6.91,15.41,15.41-6.91,15.41-15.41,15.41Zm0-30.23c-8.17,0-14.82,6.65-14.82,14.82s6.65,14.82,14.82,14.82,14.82-6.65,14.82-14.82-6.65-14.82-14.82-14.82Z"/>
        <path class="cls-22" d="M76.03,191.97c-5.17,0-9.37-4.2-9.37-9.37s4.2-9.37,9.37-9.37,9.37,4.2,9.37,9.37-4.2,9.37-9.37,9.37Zm0-18.15c-4.84,0-8.78,3.94-8.78,8.78s3.94,8.78,8.78,8.78,8.78-3.94,8.78-8.78-3.94-8.78-8.78-8.78Z"/>
        <path class="cls-30" d="M76.03,195.76c-7.26,0-13.16-5.9-13.16-13.16s5.9-13.16,13.16-13.16,13.16,5.9,13.16,13.16-5.9,13.16-13.16,13.16Zm0-25.74c-6.93,0-12.57,5.64-12.57,12.57s5.64,12.57,12.57,12.57,12.57-5.64,12.57-12.57-5.64-12.57-12.57-12.57Z"/>
        <path class="cls-6" d="M76.03,193.79c-6.17,0-11.19-5.02-11.19-11.19s5.02-11.19,11.19-11.19,11.19,5.02,11.19,11.19-5.02,11.19-11.19,11.19Zm0-21.79c-5.84,0-10.6,4.75-10.6,10.6s4.75,10.6,10.6,10.6,10.6-4.75,10.6-10.6-4.75-10.6-10.6-10.6Z"/>
        <path class="cls-1" d="M76.03,190.52c-4.35,0-7.9-3.54-7.9-7.9s3.54-7.9,7.9-7.9,7.9,3.54,7.9,7.9-3.54,7.9-7.9,7.9Zm0-15.21c-4.03,0-7.31,3.28-7.31,7.31s3.28,7.31,7.31,7.31,7.31-3.28,7.31-7.31-3.28-7.31-7.31-7.31Z"/>
        <path class="cls-31" d="M76.03,189.3c-3.69,0-6.7-3-6.7-6.7s3-6.7,6.7-6.7,6.7,3,6.7,6.7-3,6.7-6.7,6.7Zm0-12.81c-3.37,0-6.11,2.74-6.11,6.11s2.74,6.11,6.11,6.11,6.11-2.74,6.11-6.11-2.74-6.11-6.11-6.11Z"/>
        <path class="cls-2" d="M76.03,188.15c-3.06,0-5.55-2.49-5.55-5.55s2.49-5.55,5.55-5.55,5.55,2.49,5.55,5.55-2.49,5.55-5.55,5.55Zm0-10.51c-2.74,0-4.96,2.23-4.96,4.96s2.23,4.96,4.96,4.96,4.96-2.23,4.96-4.96-2.23-4.96-4.96-4.96Z"/>
        <path class="cls-29" d="M76.03,187.22c-2.55,0-4.62-2.07-4.62-4.62s2.07-4.62,4.62-4.62,4.62,2.07,4.62,4.62-2.07,4.62-4.62,4.62Zm0-8.65c-2.22,0-4.03,1.81-4.03,4.03s1.81,4.03,4.03,4.03,4.03-1.81,4.03-4.03-1.81-4.03-4.03-4.03Z"/>
        <path class="cls-3" d="M76.03,186.42c-2.11,0-3.83-1.72-3.83-3.83s1.72-3.83,3.83-3.83,3.83,1.72,3.83,3.83-1.72,3.83-3.83,3.83Zm0-7.07c-1.79,0-3.24,1.45-3.24,3.24s1.45,3.24,3.24,3.24,3.24-1.45,3.24-3.24-1.45-3.24-3.24-3.24Z"/>
      </g>
      <circle class="cls-11" cx="19.95" cy="220.86" r="2.52"/>
      <circle class="cls-11" cx="66.95" cy="173.27" r="1.26"/>
    </g>
  </g>
</svg>